<mxfile host="app.diagrams.net" modified="2023-08-20T16:15:52.431Z" agent="Mozilla/5.0 (X11; Linux x86_64) AppleWebKit/537.36 (KHTML, like Gecko) Chrome/107.0.0.0 Safari/537.36" version="21.6.8" etag="QrPnz_eTTWbgxkUyk4hi" type="github">
  <diagram name="PÃ¡gina-1" id="k_mRZ1r2Fv74-ip_T5bh">
    <mxGraphModel>
      <root>
        <mxCell id="0" />
        <mxCell id="1" parent="0" />
      </root>
    </mxGraphModel>
  </diagram>
</mxfile>
